Format : AVI
Format/Info : Audio Video Interleave
File size : 544 MiB
Duration : 42mn 46s
Overall bit rate : 1 779 Kbps
Writing application : VirtualDubMod 1.5.10.2 (build 2540/release)
Writing library : VirtualDubMod build 2540/release

Video
ID : 0
Format : MPEG-4 Visual
Format profile : Advanced Simple@L5
Format settings, BVOP : 2
Format settings, QPel : No
Format settings, GMC : No warppoints
Format settings, Matrix : Default (H.263)
Muxing mode : Packed bitstream
Codec ID : XVID
Codec ID/Hint : XviD
Duration : 42mn 46s
Bit rate : 1 386 Kbps
Width : 624 pixels
Height : 352 pixels
Display aspect ratio : 16:9
Frame rate : 23.976 fps
Color space : YUV
Chroma subsampling : 4:2:0
Bit depth : 8 bits
Scan type : Progressive
Compression mode : Lossy
Bits/(Pixel*Frame) : 0.263
Stream size : 424 MiB (78%)
Writing library : XviD 64

Audio
ID : 1
Format : AC-3
Format/Info : Audio Coding 3
Mode extension : CM (complete main)
Codec ID : 2000
Duration : 42mn 46s
Bit rate mode : Constant
Bit rate : 384 Kbps
Channel(s) : 6 channels
Channel positions : Front: L C R, Side: L R, LFE
Sampling rate : 48.0 KHz
Bit depth : 16 bits
Compression mode : Lossy
Stream size : 117 MiB (22%)
Alignment : Split accross interleaves
Interleave, duration : 42 ms (1.00 video frame)
Interleave, preload duration : 500 ms








The Walking Dead: Save the Last one

The group desperately awaits Shane's return. Shane finds himself trapped in a school, surrounded by the undead. Daryl and Andrea search for someone in the woods.






















Source Used


IMMERSE x264 720p .........Thanks




Enjoy





Greetz to IMAGiNE,Flawl3ss,BDK,Ez,CreWsaDe,TaRiQ786,ETRG,BHRG,iLLUMiNATi,ViSUALiSE,MiSTERE
